<svg width="382" height="240" viewBox="0 0 382 240" fill="none" xmlns="http://www.w3.org/2000/svg">
<g filter="url(#filter0_dddd_99_3317)">
<rect x="80.6133" y="29.0322" width="220.387" height="78.7097" rx="6.29677" fill="black"/>
</g>
<path d="M129.094 69.3008C129.128 66.6545 130.549 64.1506 132.804 62.7646C131.382 60.7334 128.999 59.4456 126.521 59.368C123.878 59.0906 121.315 60.9498 119.968 60.9498C118.595 60.9498 116.521 59.3956 114.287 59.4415C111.376 59.5356 108.662 61.1906 107.246 63.7357C104.202 69.0068 106.472 76.7535 109.389 81.0142C110.848 83.1005 112.553 85.4311 114.785 85.3484C116.968 85.2579 117.784 83.9561 120.419 83.9561C123.03 83.9561 123.796 85.3484 126.072 85.2959C128.415 85.2578 129.891 83.2002 131.299 81.0941C132.348 79.6075 133.154 77.9645 133.69 76.2259C130.936 75.0613 129.097 72.2904 129.094 69.3008Z" fill="white"/>
<path d="M124.794 56.566C126.071 55.0324 126.701 53.0612 126.548 51.071C124.597 51.276 122.794 52.2088 121.499 53.6836C120.233 55.1245 119.574 57.061 119.699 58.9751C121.651 58.9952 123.571 58.0877 124.794 56.566Z" fill="white"/>
<path d="M146.336 52.4775H150.633C152.124 52.4775 153.367 53.0127 154.364 54.0831C155.361 55.1431 155.86 56.4444 155.86 57.9871C155.86 59.5194 155.361 60.8259 154.364 61.9069C153.367 62.9668 152.124 63.4968 150.633 63.4968H146.336V52.4775ZM147.8 62.1115H150.633C151.756 62.1115 152.675 61.718 153.388 60.9309C154.102 60.1333 154.459 59.1521 154.459 57.9871C154.459 56.8222 154.102 55.841 153.388 55.0434C152.675 54.2563 151.756 53.8628 150.633 53.8628H147.8V62.1115ZM164.136 62.5051C163.339 63.3027 162.358 63.7015 161.193 63.7015C160.028 63.7015 159.047 63.3027 158.249 62.5051C157.451 61.7075 157.053 60.7262 157.053 59.5613C157.053 58.3964 157.451 57.4152 158.249 56.6176C159.047 55.82 160.028 55.4212 161.193 55.4212C162.358 55.4212 163.339 55.82 164.136 56.6176C164.945 57.4257 165.349 58.4069 165.349 59.5613C165.349 60.7158 164.945 61.697 164.136 62.5051ZM161.193 62.3634C161.98 62.3634 162.641 62.0958 163.176 61.5606C163.711 61.0253 163.979 60.3589 163.979 59.5613C163.979 58.7638 163.711 58.0973 163.176 57.5621C162.641 57.0269 161.98 56.7593 161.193 56.7593C160.416 56.7593 159.76 57.0269 159.225 57.5621C158.69 58.0973 158.422 58.7638 158.422 59.5613C158.422 60.3589 158.69 61.0253 159.225 61.5606C159.76 62.0958 160.416 62.3634 161.193 62.3634ZM174.196 61.6235L175.928 55.6259H177.36L174.92 63.4968H173.519L171.677 57.6723L169.836 63.4968H168.435L165.995 55.6259H167.427L169.159 61.6078L171.016 55.6259H172.339L174.196 61.6235ZM182.689 55.4212C183.613 55.4212 184.353 55.7151 184.909 56.3028C185.465 56.88 185.743 57.6671 185.743 58.6641V63.4968H184.374V58.7428C184.374 58.1131 184.201 57.6198 183.854 57.263C183.508 56.9062 183.03 56.7278 182.422 56.7278C181.719 56.7278 181.162 56.9482 180.753 57.389C180.344 57.8192 180.139 58.4647 180.139 59.3252V63.4968H178.77V55.6259H180.139V56.7593C180.685 55.8672 181.535 55.4212 182.689 55.4212ZM189.025 63.4968H187.655V52.0052H189.025V63.4968ZM197.757 62.5051C196.96 63.3027 195.978 63.7015 194.813 63.7015C193.649 63.7015 192.667 63.3027 191.87 62.5051C191.072 61.7075 190.673 60.7262 190.673 59.5613C190.673 58.3964 191.072 57.4152 191.87 56.6176C192.667 55.82 193.649 55.4212 194.813 55.4212C195.978 55.4212 196.96 55.82 197.757 56.6176C198.565 57.4257 198.969 58.4069 198.969 59.5613C198.969 60.7158 198.565 61.697 197.757 62.5051ZM194.813 62.3634C195.601 62.3634 196.262 62.0958 196.797 61.5606C197.332 61.0253 197.6 60.3589 197.6 59.5613C197.6 58.7638 197.332 58.0973 196.797 57.5621C196.262 57.0269 195.601 56.7593 194.813 56.7593C194.037 56.7593 193.381 57.0269 192.846 57.5621C192.31 58.0973 192.043 58.7638 192.043 59.5613C192.043 60.3589 192.31 61.0253 192.846 61.5606C193.381 62.0958 194.037 62.3634 194.813 62.3634ZM207.101 56.9797V55.6259H208.471V63.4968H207.101V62.143C206.429 63.182 205.438 63.7015 204.126 63.7015C203.013 63.7015 202.074 63.3027 201.308 62.5051C200.531 61.697 200.143 60.7158 200.143 59.5613C200.143 58.4174 200.531 57.4414 201.308 56.6333C202.085 55.8253 203.024 55.4212 204.126 55.4212C205.438 55.4212 206.429 55.9407 207.101 56.9797ZM204.299 62.3791C205.097 62.3791 205.763 62.1115 206.298 61.5763C206.833 61.0201 207.101 60.3484 207.101 59.5613C207.101 58.7638 206.833 58.0973 206.298 57.5621C205.763 57.0164 205.097 56.7435 204.299 56.7435C203.512 56.7435 202.851 57.0164 202.315 57.5621C201.78 58.0973 201.513 58.7638 201.513 59.5613C201.513 60.3484 201.78 61.0201 202.315 61.5763C202.851 62.1115 203.512 62.3791 204.299 62.3791ZM217.063 56.9797V52.4775H218.432V63.4968H217.063V62.143C216.391 63.182 215.399 63.7015 214.087 63.7015C212.975 63.7015 212.036 63.3027 211.27 62.5051C210.493 61.697 210.105 60.7158 210.105 59.5613C210.105 58.4174 210.493 57.4414 211.27 56.6333C212.046 55.8253 212.986 55.4212 214.087 55.4212C215.399 55.4212 216.391 55.9407 217.063 56.9797ZM214.261 62.3791C215.058 62.3791 215.725 62.1115 216.26 61.5763C216.795 61.0201 217.063 60.3484 217.063 59.5613C217.063 58.7638 216.795 58.0973 216.26 57.5621C215.725 57.0164 215.058 56.7435 214.261 56.7435C213.474 56.7435 212.812 57.0164 212.277 57.5621C211.742 58.0973 211.474 58.7638 211.474 59.5613C211.474 60.3484 211.742 61.0201 212.277 61.5763C212.812 62.1115 213.474 62.3791 214.261 62.3791ZM231.086 62.5051C230.288 63.3027 229.307 63.7015 228.142 63.7015C226.977 63.7015 225.996 63.3027 225.198 62.5051C224.401 61.7075 224.002 60.7262 224.002 59.5613C224.002 58.3964 224.401 57.4152 225.198 56.6176C225.996 55.82 226.977 55.4212 228.142 55.4212C229.307 55.4212 230.288 55.82 231.086 56.6176C231.894 57.4257 232.298 58.4069 232.298 59.5613C232.298 60.7158 231.894 61.697 231.086 62.5051ZM228.142 62.3634C228.929 62.3634 229.59 62.0958 230.126 61.5606C230.661 61.0253 230.928 60.3589 230.928 59.5613C230.928 58.7638 230.661 58.0973 230.126 57.5621C229.59 57.0269 228.929 56.7593 228.142 56.7593C227.365 56.7593 226.71 57.0269 226.174 57.5621C225.639 58.0973 225.372 58.7638 225.372 59.5613C225.372 60.3589 225.639 61.0253 226.174 61.5606C226.71 62.0958 227.365 62.3634 228.142 62.3634ZM237.832 55.4212C238.756 55.4212 239.496 55.7151 240.052 56.3028C240.608 56.88 240.886 57.6671 240.886 58.6641V63.4968H239.517V58.7428C239.517 58.1131 239.343 57.6198 238.997 57.263C238.651 56.9062 238.173 56.7278 237.565 56.7278C236.861 56.7278 236.305 56.9482 235.896 57.389C235.487 57.8192 235.282 58.4647 235.282 59.3252V63.4968H233.912V55.6259H235.282V56.7593C235.828 55.8672 236.678 55.4212 237.832 55.4212ZM251.015 55.6259V56.9482H248.922V61.2142C248.922 61.6025 248.995 61.8807 249.142 62.0486C249.299 62.206 249.536 62.2899 249.85 62.3004C250.165 62.3004 250.554 62.2899 251.015 62.269V63.4968C249.808 63.6542 248.927 63.5545 248.371 63.1977C247.825 62.8409 247.552 62.1798 247.552 61.2142V56.9482H245.994V55.6259H247.552V53.8313L248.922 53.422V55.6259H251.015ZM256.557 55.4212C257.48 55.4212 258.22 55.7151 258.776 56.3028C259.332 56.88 259.61 57.6671 259.61 58.6641V63.4968H258.241V58.7428C258.241 58.1131 258.068 57.6198 257.721 57.263C257.375 56.9062 256.898 56.7278 256.289 56.7278C255.586 56.7278 255.03 56.9482 254.62 57.389C254.211 57.8192 254.006 58.4647 254.006 59.3252V63.4968H252.637V52.4775H254.006V56.7593C254.552 55.8672 255.402 55.4212 256.557 55.4212ZM269.078 60.191H262.483C262.619 60.8837 262.939 61.4294 263.443 61.8282C263.947 62.2165 264.576 62.4106 265.332 62.4106C266.371 62.4106 267.126 62.0276 267.599 61.2615L268.764 61.9226C267.987 63.1085 266.833 63.7015 265.3 63.7015C264.062 63.7015 263.044 63.3132 262.246 62.5366C261.47 61.739 261.082 60.7472 261.082 59.5613C261.082 58.365 261.465 57.3785 262.231 56.6019C262.997 55.8148 263.989 55.4212 265.206 55.4212C266.36 55.4212 267.3 55.8305 268.024 56.6491C268.758 57.4467 269.126 58.4227 269.126 59.5771C269.126 59.7765 269.11 59.9811 269.078 60.191ZM265.206 56.7121C264.482 56.7121 263.873 56.9167 263.38 57.326C262.897 57.7353 262.598 58.2915 262.483 58.9946H267.74C267.625 58.2705 267.336 57.709 266.875 57.3102C266.413 56.9114 265.857 56.7121 265.206 56.7121Z" fill="white"/>
<path d="M159.811 85.2388H156.505L155.58 82.4619H149.431L148.505 85.2388H145.221L150.621 69.8117H154.389L159.811 85.2388ZM152.516 73.3158L150.4 79.6189H154.632L152.516 73.3158ZM167.59 73.9109C169.074 73.9109 170.337 74.4765 171.381 75.6079C172.439 76.7392 172.967 78.1129 172.967 79.7291C172.967 81.3746 172.439 82.7557 171.381 83.8724C170.352 84.989 169.089 85.5473 167.59 85.5473C166.047 85.5473 164.857 85.011 164.02 83.9385V89.6465H161.177V74.2194H164.02V75.5197C164.857 74.4471 166.047 73.9109 167.59 73.9109ZM164.879 81.977C165.452 82.55 166.18 82.8366 167.061 82.8366C167.943 82.8366 168.67 82.55 169.243 81.977C169.831 81.3893 170.124 80.64 170.124 79.7291C170.124 78.8182 169.831 78.0762 169.243 77.5032C168.67 76.9155 167.943 76.6216 167.061 76.6216C166.18 76.6216 165.452 76.9155 164.879 77.5032C164.306 78.0762 164.02 78.8182 164.02 79.7291C164.02 80.64 164.306 81.3893 164.879 81.977ZM181.386 73.9109C182.87 73.9109 184.133 74.4765 185.176 75.6079C186.234 76.7392 186.763 78.1129 186.763 79.7291C186.763 81.3746 186.234 82.7557 185.176 83.8724C184.148 84.989 182.884 85.5473 181.386 85.5473C179.843 85.5473 178.653 85.011 177.815 83.9385V89.6465H174.972V74.2194H177.815V75.5197C178.653 74.4471 179.843 73.9109 181.386 73.9109ZM178.675 81.977C179.248 82.55 179.975 82.8366 180.857 82.8366C181.738 82.8366 182.466 82.55 183.039 81.977C183.626 81.3893 183.92 80.64 183.92 79.7291C183.92 78.8182 183.626 78.0762 183.039 77.5032C182.466 76.9155 181.738 76.6216 180.857 76.6216C179.975 76.6216 179.248 76.9155 178.675 77.5032C178.102 78.0762 177.815 78.8182 177.815 79.7291C177.815 80.64 178.102 81.3893 178.675 81.977ZM199.677 85.5473C198.164 85.5473 196.886 85.2094 195.843 84.5335C194.799 83.8577 194.057 82.9247 193.617 81.7346L196.217 80.2139C196.82 81.786 198.002 82.5721 199.765 82.5721C200.588 82.5721 201.205 82.4252 201.617 82.1313C202.028 81.8375 202.234 81.4408 202.234 80.9412C202.234 80.3976 201.991 79.9789 201.507 79.685C201.022 79.3765 200.155 79.0459 198.906 78.6933C197.554 78.2819 196.489 77.8044 195.71 77.2608C194.741 76.5408 194.256 75.483 194.256 74.0872C194.256 72.6767 194.748 71.5674 195.732 70.7593C196.717 69.9219 197.914 69.5031 199.325 69.5031C200.559 69.5031 201.653 69.8043 202.608 70.4067C203.563 71.0091 204.305 71.8613 204.834 72.9632L202.278 74.4398C201.661 73.1175 200.676 72.4563 199.325 72.4563C198.708 72.4563 198.215 72.6032 197.848 72.8971C197.481 73.1762 197.297 73.5436 197.297 73.999C197.297 74.4839 197.495 74.8806 197.892 75.1891C198.333 75.4977 199.112 75.8209 200.228 76.1588L201.286 76.5114C201.477 76.5702 201.808 76.6951 202.278 76.8861C202.719 77.0477 203.042 77.202 203.248 77.3489C203.968 77.7897 204.452 78.2452 204.702 78.7153C205.084 79.3324 205.275 80.0597 205.275 80.8971C205.275 82.3223 204.754 83.4536 203.71 84.2911C202.667 85.1286 201.323 85.5473 199.677 85.5473ZM213.107 74.2194V76.9522H210.616V81.5363C210.616 81.9183 210.712 82.1974 210.903 82.3737C211.094 82.55 211.373 82.6529 211.74 82.6823C212.108 82.697 212.563 82.6896 213.107 82.6602V85.2388C211.182 85.4592 209.808 85.2828 208.986 84.7098C208.177 84.1221 207.773 83.0643 207.773 81.5363V76.9522H205.856V74.2194H207.773V71.9935L210.616 71.134V74.2194H213.107ZM224.155 83.8724C223.039 84.989 221.658 85.5473 220.012 85.5473C218.367 85.5473 216.986 84.989 215.869 83.8724C214.752 82.7557 214.194 81.3746 214.194 79.7291C214.194 78.0982 214.752 76.7245 215.869 75.6079C217 74.4765 218.381 73.9109 220.012 73.9109C221.643 73.9109 223.024 74.4765 224.155 75.6079C225.287 76.7392 225.852 78.1129 225.852 79.7291C225.852 81.36 225.287 82.741 224.155 83.8724ZM217.874 81.9109C218.447 82.4839 219.16 82.7704 220.012 82.7704C220.864 82.7704 221.577 82.4839 222.15 81.9109C222.723 81.3379 223.009 80.6106 223.009 79.7291C223.009 78.8475 222.723 78.1203 222.15 77.5473C221.577 76.9743 220.864 76.6877 220.012 76.6877C219.16 76.6877 218.447 76.9743 217.874 77.5473C217.316 78.135 217.037 78.8622 217.037 79.7291C217.037 80.5959 217.316 81.3232 217.874 81.9109ZM230.695 74.2194V76.1147C230.945 75.4242 231.371 74.9026 231.974 74.55C232.576 74.1827 233.267 73.999 234.045 73.999V77.1726C233.178 77.0551 232.4 77.2314 231.709 77.7015C231.033 78.157 230.695 78.9137 230.695 79.9715V85.2388H227.852V74.2194H230.695ZM246.01 80.8971H237.701C238.069 82.2782 239.104 82.9688 240.809 82.9688C241.896 82.9688 242.719 82.6015 243.277 81.8668L245.569 83.1892C244.482 84.7613 242.88 85.5473 240.765 85.5473C238.943 85.5473 237.481 84.9963 236.379 83.8944C235.277 82.7925 234.726 81.404 234.726 79.7291C234.726 78.0835 235.27 76.7024 236.357 75.5858C237.43 74.4692 238.825 73.9109 240.544 73.9109C242.175 73.9109 243.505 74.4692 244.533 75.5858C245.591 76.7024 246.12 78.0835 246.12 79.7291C246.12 80.0376 246.083 80.427 246.01 80.8971ZM237.657 78.6933H243.277C243.116 77.9733 242.785 77.4224 242.285 77.0404C241.801 76.6584 241.22 76.4674 240.544 76.4674C239.78 76.4674 239.149 76.6657 238.649 77.0624C238.149 77.4444 237.819 77.988 237.657 78.6933Z" fill="white"/>
<defs>
<filter id="filter0_dddd_99_3317" x="0.329407" y="0.696739" width="380.955" height="239.277" filterUnits="userSpaceOnUse" color-interpolation-filters="sRGB">
<feFlood flood-opacity="0" result="BackgroundImageFix"/>
<feColorMatrix in="SourceAlpha" type="matrix" values="0 0 0 0 0 0 0 0 0 0 0 0 0 0 0 0 0 0 127 0" result="hardAlpha"/>
<feOffset dy="2.35264"/>
<feGaussianBlur stdDeviation="1.81795"/>
<feColorMatrix type="matrix" values="0 0 0 0 0 0 0 0 0 0 0 0 0 0 0 0 0 0 0.0268173 0"/>
<feBlend mode="normal" in2="BackgroundImageFix" result="effect1_dropShadow_99_3317"/>
<feColorMatrix in="SourceAlpha" type="matrix" values="0 0 0 0 0 0 0 0 0 0 0 0 0 0 0 0 0 0 127 0" result="hardAlpha"/>
<feOffset dy="6.50474"/>
<feGaussianBlur stdDeviation="5.02639"/>
<feColorMatrix type="matrix" values="0 0 0 0 0 0 0 0 0 0 0 0 0 0 0 0 0 0 0.0399899 0"/>
<feBlend mode="normal" in2="effect1_dropShadow_99_3317" result="effect2_dropShadow_99_3317"/>
<feColorMatrix in="SourceAlpha" type="matrix" values="0 0 0 0 0 0 0 0 0 0 0 0 0 0 0 0 0 0 127 0" result="hardAlpha"/>
<feOffset dy="15.6609"/>
<feGaussianBlur stdDeviation="12.1016"/>
<feColorMatrix type="matrix" values="0 0 0 0 0 0 0 0 0 0 0 0 0 0 0 0 0 0 0.0582218 0"/>
<feBlend mode="normal" in2="effect2_dropShadow_99_3317" result="effect3_dropShadow_99_3317"/>
<feColorMatrix in="SourceAlpha" type="matrix" values="0 0 0 0 0 0 0 0 0 0 0 0 0 0 0 0 0 0 127 0" result="hardAlpha"/>
<feOffset dy="51.9484"/>
<feGaussianBlur stdDeviation="40.1419"/>
<feColorMatrix type="matrix" values="0 0 0 0 0 0 0 0 0 0 0 0 0 0 0 0 0 0 0.08 0"/>
<feBlend mode="normal" in2="effect3_dropShadow_99_3317" result="effect4_dropShadow_99_3317"/>
<feBlend mode="normal" in="SourceGraphic" in2="effect4_dropShadow_99_3317" result="shape"/>
</filter>
</defs>
</svg>
