<svg width="28" height="27" viewBox="0 0 28 27" fill="none" xmlns="http://www.w3.org/2000/svg">
<path d="M23.7446 21.6996C23.7446 22.0996 23.6557 22.5107 23.4668 22.9107C23.2779 23.3107 23.0334 23.6885 22.7112 24.0441C22.1668 24.6441 21.5668 25.0774 20.889 25.3552C20.2223 25.633 19.5001 25.7774 18.7223 25.7774C17.589 25.7774 16.3779 25.5107 15.1001 24.9663C13.8223 24.4218 12.5446 23.6885 11.2779 22.7663C10.0001 21.833 8.789 20.7996 7.63344 19.6552C6.489 18.4996 5.45566 17.2885 4.53344 16.0218C3.62233 14.7552 2.889 13.4885 2.35566 12.233C1.82233 10.9663 1.55566 9.75518 1.55566 8.59962C1.55566 7.84407 1.689 7.12184 1.95566 6.45518C2.22233 5.7774 2.64455 5.15518 3.23344 4.59962C3.94455 3.89962 4.72233 3.55518 5.54455 3.55518C5.85566 3.55518 6.16678 3.62184 6.44455 3.75518C6.73344 3.88851 6.989 4.08851 7.189 4.3774L9.76678 8.01073C9.96678 8.28851 10.1112 8.54407 10.2112 8.78851C10.3112 9.02184 10.3668 9.25518 10.3668 9.46629C10.3668 9.73295 10.289 9.99962 10.1334 10.2552C9.989 10.5107 9.77789 10.7774 9.51122 11.0441L8.66678 11.9218C8.54455 12.0441 8.489 12.1885 8.489 12.3663C8.489 12.4552 8.50011 12.533 8.52233 12.6218C8.55566 12.7107 8.589 12.7774 8.61122 12.8441C8.81122 13.2107 9.15566 13.6885 9.64455 14.2663C10.1446 14.8441 10.6779 15.433 11.2557 16.0218C11.8557 16.6107 12.4334 17.1552 13.0223 17.6552C13.6001 18.1441 14.0779 18.4774 14.4557 18.6774C14.5112 18.6996 14.5779 18.733 14.6557 18.7663C14.7446 18.7996 14.8334 18.8107 14.9334 18.8107C15.1223 18.8107 15.2668 18.7441 15.389 18.6218L16.2334 17.7885C16.5112 17.5107 16.7779 17.2996 17.0334 17.1663C17.289 17.0107 17.5446 16.933 17.8223 16.933C18.0334 16.933 18.2557 16.9774 18.5001 17.0774C18.7446 17.1774 19.0001 17.3218 19.2779 17.5107L22.9557 20.1218C23.2446 20.3218 23.4446 20.5552 23.5668 20.833C23.6779 21.1107 23.7446 21.3885 23.7446 21.6996Z" stroke="white" stroke-width="1.6" stroke-miterlimit="10"/>
<path d="M19.8889 11.3327C19.8889 10.6661 19.3667 9.64385 18.5889 8.81051C17.8778 8.04385 16.9333 7.44385 16 7.44385" stroke="white" stroke-width="1.6" stroke-linecap="round" stroke-linejoin="round"/>
<path d="M23.7778 11.333C23.7778 7.03295 20.3 3.55518 16 3.55518" stroke="white" stroke-width="1.6" stroke-linecap="round" stroke-linejoin="round"/>
</svg>
