<svg width="48" height="48" viewBox="0 0 48 48" fill="none" xmlns="http://www.w3.org/2000/svg">
<rect width="48" height="48" rx="24" fill="#F2F6FF"/>
<path d="M31.3082 30.2748C31.3082 30.5748 31.2415 30.8832 31.0998 31.1832C30.9582 31.4832 30.7748 31.7665 30.5332 32.0332C30.1248 32.4832 29.6748 32.8082 29.1665 33.0165C28.6665 33.2248 28.1248 33.3332 27.5415 33.3332C26.6915 33.3332 25.7832 33.1332 24.8248 32.7248C23.8665 32.3165 22.9082 31.7665 21.9582 31.0748C20.9998 30.3748 20.0915 29.5998 19.2248 28.7415C18.3665 27.8748 17.5915 26.9665 16.8998 26.0165C16.2165 25.0665 15.6665 24.1165 15.2665 23.1748C14.8665 22.2248 14.6665 21.3165 14.6665 20.4498C14.6665 19.8832 14.7665 19.3415 14.9665 18.8415C15.1665 18.3332 15.4832 17.8665 15.9248 17.4498C16.4582 16.9248 17.0415 16.6665 17.6582 16.6665C17.8915 16.6665 18.1248 16.7165 18.3332 16.8165C18.5498 16.9165 18.7415 17.0665 18.8915 17.2832L20.8248 20.0082C20.9748 20.2165 21.0832 20.4082 21.1582 20.5915C21.2332 20.7665 21.2748 20.9415 21.2748 21.0998C21.2748 21.2998 21.2165 21.4998 21.0998 21.6915C20.9915 21.8832 20.8332 22.0832 20.6332 22.2832L19.9998 22.9415C19.9082 23.0332 19.8665 23.1415 19.8665 23.2748C19.8665 23.3415 19.8748 23.3998 19.8915 23.4665C19.9165 23.5332 19.9415 23.5832 19.9582 23.6332C20.1082 23.9082 20.3665 24.2665 20.7332 24.6998C21.1082 25.1332 21.5082 25.5748 21.9415 26.0165C22.3915 26.4582 22.8248 26.8665 23.2665 27.2415C23.6998 27.6082 24.0582 27.8582 24.3415 28.0082C24.3832 28.0248 24.4332 28.0498 24.4915 28.0748C24.5582 28.0998 24.6248 28.1082 24.6998 28.1082C24.8415 28.1082 24.9498 28.0582 25.0415 27.9665L25.6748 27.3415C25.8832 27.1332 26.0832 26.9748 26.2748 26.8748C26.4665 26.7582 26.6582 26.6998 26.8665 26.6998C27.0248 26.6998 27.1915 26.7332 27.3748 26.8082C27.5582 26.8832 27.7498 26.9915 27.9582 27.1332L30.7165 29.0915C30.9332 29.2415 31.0832 29.4165 31.1748 29.6248C31.2582 29.8332 31.3082 30.0415 31.3082 30.2748Z" stroke="#1D19DC" stroke-width="1.6" stroke-miterlimit="10"/>
<path d="M28.4167 22.4997C28.4167 21.9997 28.025 21.233 27.4417 20.608C26.9083 20.033 26.2 19.583 25.5 19.583" stroke="#1D19DC" stroke-width="1.6" stroke-linecap="round" stroke-linejoin="round"/>
<path d="M31.3333 22.4998C31.3333 19.2748 28.725 16.6665 25.5 16.6665" stroke="#1D19DC" stroke-width="1.6" stroke-linecap="round" stroke-linejoin="round"/>
</svg>
