<svg width="382" height="240" viewBox="0 0 382 240" fill="none" xmlns="http://www.w3.org/2000/svg">
<g filter="url(#filter0_dddd_99_3307)">
<rect x="81" y="29.0322" width="220.387" height="78.7097" rx="6.29677" fill="black"/>
</g>
<path d="M154.987 58.0344H160.497V58.6955C160.497 60.1333 160.004 61.3297 159.017 62.2847C158.031 63.2292 156.724 63.7015 155.097 63.7015C153.418 63.7015 152.028 63.1505 150.926 62.0486C149.834 60.9256 149.289 59.5718 149.289 57.9871C149.289 56.4025 149.834 55.0539 150.926 53.9415C152.028 52.829 153.408 52.2728 155.066 52.2728C156.073 52.2728 157.007 52.5194 157.868 53.0127C158.739 53.5059 159.395 54.1461 159.836 54.9332L158.576 55.6731C158.262 55.0749 157.784 54.5974 157.144 54.2406C156.504 53.8733 155.806 53.6896 155.05 53.6896C153.78 53.6896 152.747 54.1041 151.949 54.9332C151.141 55.7623 150.737 56.7803 150.737 57.9871C150.737 59.194 151.141 60.212 151.949 61.0411C152.768 61.8597 153.822 62.269 155.113 62.269C156.194 62.269 157.076 62.0066 157.758 61.4819C158.45 60.9466 158.875 60.2382 159.033 59.3567H154.987V58.0344ZM169.692 60.191H163.096C163.232 60.8837 163.552 61.4294 164.056 61.8282C164.56 62.2165 165.189 62.4106 165.945 62.4106C166.984 62.4106 167.74 62.0276 168.212 61.2615L169.377 61.9226C168.6 63.1085 167.446 63.7015 165.913 63.7015C164.675 63.7015 163.657 63.3132 162.86 62.5366C162.083 61.739 161.695 60.7472 161.695 59.5613C161.695 58.365 162.078 57.3785 162.844 56.6019C163.61 55.8148 164.602 55.4212 165.819 55.4212C166.973 55.4212 167.913 55.8305 168.637 56.6491C169.371 57.4467 169.739 58.4227 169.739 59.5771C169.739 59.7765 169.723 59.9811 169.692 60.191ZM165.819 56.7121C165.095 56.7121 164.486 56.9167 163.993 57.326C163.51 57.7353 163.211 58.2915 163.096 58.9946H168.353C168.238 58.2705 167.949 57.709 167.488 57.3102C167.026 56.9114 166.47 56.7121 165.819 56.7121ZM175.364 55.6259V56.9482H173.271V61.2142C173.271 61.6025 173.344 61.8807 173.491 62.0486C173.648 62.206 173.885 62.2899 174.199 62.3004C174.514 62.3004 174.903 62.2899 175.364 62.269V63.4968C174.157 63.6542 173.276 63.5545 172.72 63.1977C172.174 62.8409 171.901 62.1798 171.901 61.2142V56.9482H170.343V55.6259H171.901V53.8313L173.271 53.422V55.6259H175.364ZM181.66 54.1933C181.398 54.1933 181.177 54.1041 180.999 53.9257C180.82 53.7473 180.731 53.5322 180.731 53.2803C180.731 53.0284 180.82 52.8133 180.999 52.6349C181.177 52.446 181.398 52.3515 181.66 52.3515C181.912 52.3515 182.127 52.446 182.305 52.6349C182.484 52.8133 182.573 53.0284 182.573 53.2803C182.573 53.5322 182.484 53.7473 182.305 53.9257C182.127 54.1041 181.912 54.1933 181.66 54.1933ZM182.337 63.4968H180.967V55.6259H182.337V63.4968ZM188.708 55.6259V56.9482H186.614V61.2142C186.614 61.6025 186.688 61.8807 186.835 62.0486C186.992 62.206 187.228 62.2899 187.543 62.3004C187.858 62.3004 188.246 62.2899 188.708 62.269V63.4968C187.501 63.6542 186.62 63.5545 186.063 63.1977C185.518 62.8409 185.245 62.1798 185.245 61.2142V56.9482H183.686V55.6259H185.245V53.8313L186.614 53.422V55.6259H188.708ZM193.87 57.9871C193.87 56.392 194.421 55.0434 195.523 53.9415C196.625 52.829 197.974 52.2728 199.569 52.2728C201.164 52.2728 202.513 52.829 203.615 53.9415C204.727 55.0434 205.283 56.392 205.283 57.9871C205.283 59.5718 204.727 60.9204 203.615 62.0328C202.513 63.1453 201.164 63.7015 199.569 63.7015C197.974 63.7015 196.625 63.1453 195.523 62.0328C194.421 60.9099 193.87 59.5613 193.87 57.9871ZM203.819 57.9871C203.819 56.7698 203.41 55.7518 202.591 54.9332C201.794 54.1041 200.786 53.6896 199.569 53.6896C198.362 53.6896 197.349 54.1041 196.531 54.9332C195.723 55.7623 195.319 56.7803 195.319 57.9871C195.319 59.1835 195.723 60.2015 196.531 61.0411C197.349 61.8597 198.362 62.269 199.569 62.269C200.786 62.269 201.794 61.8597 202.591 61.0411C203.41 60.2015 203.819 59.1835 203.819 57.9871ZM210.821 55.4212C211.745 55.4212 212.485 55.7151 213.041 56.3028C213.597 56.88 213.875 57.6671 213.875 58.6641V63.4968H212.506V58.7428C212.506 58.1131 212.332 57.6198 211.986 57.263C211.64 56.9062 211.162 56.7278 210.554 56.7278C209.851 56.7278 209.294 56.9482 208.885 57.389C208.476 57.8192 208.271 58.4647 208.271 59.3252V63.4968H206.902V55.6259H208.271V56.7593C208.817 55.8672 209.667 55.4212 210.821 55.4212Z" fill="white"/>
<path d="M157.528 76.9522H165.264V78.1423C165.264 80.3462 164.558 82.1313 163.148 83.4977C161.737 84.8641 159.915 85.5473 157.682 85.5473C155.302 85.5473 153.326 84.776 151.754 83.2332C150.196 81.6758 149.418 79.7805 149.418 77.5473C149.418 75.2993 150.189 73.3966 151.732 71.8392C153.289 70.2818 155.214 69.5031 157.506 69.5031C158.931 69.5031 160.239 69.8264 161.429 70.4728C162.619 71.1193 163.552 71.9935 164.228 73.0954L161.627 74.5941C161.26 73.9623 160.702 73.4481 159.952 73.0514C159.203 72.6547 158.38 72.4563 157.484 72.4563C156 72.4563 154.788 72.9412 153.847 73.9109C152.907 74.8512 152.437 76.0633 152.437 77.5473C152.437 79.0018 152.915 80.2066 153.87 81.1616C154.825 82.1019 156.103 82.5721 157.704 82.5721C158.865 82.5721 159.835 82.315 160.613 81.8007C161.392 81.2865 161.921 80.5666 162.2 79.6409H157.528V76.9522ZM176.683 83.8724C175.566 84.989 174.185 85.5473 172.54 85.5473C170.894 85.5473 169.513 84.989 168.396 83.8724C167.28 82.7557 166.722 81.3746 166.722 79.7291C166.722 78.0982 167.28 76.7245 168.396 75.6079C169.528 74.4765 170.909 73.9109 172.54 73.9109C174.171 73.9109 175.552 74.4765 176.683 75.6079C177.814 76.7392 178.38 78.1129 178.38 79.7291C178.38 81.36 177.814 82.741 176.683 83.8724ZM170.402 81.9109C170.975 82.4839 171.688 82.7704 172.54 82.7704C173.392 82.7704 174.105 82.4839 174.678 81.9109C175.251 81.3379 175.537 80.6106 175.537 79.7291C175.537 78.8475 175.251 78.1203 174.678 77.5473C174.105 76.9743 173.392 76.6877 172.54 76.6877C171.688 76.6877 170.975 76.9743 170.402 77.5473C169.844 78.135 169.565 78.8622 169.565 79.7291C169.565 80.5959 169.844 81.3232 170.402 81.9109ZM189.769 83.8724C188.652 84.989 187.271 85.5473 185.625 85.5473C183.98 85.5473 182.599 84.989 181.482 83.8724C180.365 82.7557 179.807 81.3746 179.807 79.7291C179.807 78.0982 180.365 76.7245 181.482 75.6079C182.613 74.4765 183.994 73.9109 185.625 73.9109C187.256 73.9109 188.637 74.4765 189.769 75.6079C190.9 76.7392 191.465 78.1129 191.465 79.7291C191.465 81.36 190.9 82.741 189.769 83.8724ZM183.487 81.9109C184.06 82.4839 184.773 82.7704 185.625 82.7704C186.477 82.7704 187.19 82.4839 187.763 81.9109C188.336 81.3379 188.623 80.6106 188.623 79.7291C188.623 78.8475 188.336 78.1203 187.763 77.5473C187.19 76.9743 186.477 76.6877 185.625 76.6877C184.773 76.6877 184.06 76.9743 183.487 77.5473C182.929 78.135 182.65 78.8622 182.65 79.7291C182.65 80.5959 182.929 81.3232 183.487 81.9109ZM201.906 75.5858V74.2194H204.683V84.7098C204.683 86.3995 204.118 87.6998 202.986 88.6107C201.87 89.5069 200.518 89.9551 198.931 89.9551C196.433 89.9551 194.692 89.0588 193.708 87.2663L196.132 85.8779C196.676 86.9064 197.638 87.4206 199.019 87.4206C199.916 87.4206 200.621 87.1855 201.135 86.7154C201.649 86.2452 201.906 85.5767 201.906 84.7098V83.5198C201.069 84.6364 199.893 85.1947 198.38 85.1947C196.823 85.1947 195.515 84.6511 194.457 83.5638C193.414 82.4472 192.893 81.1102 192.893 79.5528C192.893 77.9954 193.421 76.6657 194.479 75.5638C195.537 74.4618 196.837 73.9109 198.38 73.9109C199.893 73.9109 201.069 74.4692 201.906 75.5858ZM201.025 81.7346C201.612 81.1616 201.906 80.4343 201.906 79.5528C201.906 78.6712 201.612 77.9586 201.025 77.415C200.452 76.842 199.717 76.5555 198.821 76.5555C197.939 76.5555 197.197 76.842 196.595 77.415C196.022 77.9586 195.736 78.6712 195.736 79.5528C195.736 80.4343 196.022 81.1616 196.595 81.7346C197.183 82.2929 197.925 82.5721 198.821 82.5721C199.717 82.5721 200.452 82.2929 201.025 81.7346ZM210.104 85.2388H207.261V69.1505H210.104V85.2388ZM223.417 80.8971H215.109C215.476 82.2782 216.512 82.9688 218.216 82.9688C219.303 82.9688 220.126 82.6015 220.684 81.8668L222.976 83.1892C221.889 84.7613 220.288 85.5473 218.172 85.5473C216.35 85.5473 214.888 84.9963 213.786 83.8944C212.684 82.7925 212.133 81.404 212.133 79.7291C212.133 78.0835 212.677 76.7024 213.764 75.5858C214.837 74.4692 216.233 73.9109 217.952 73.9109C219.582 73.9109 220.912 74.4692 221.941 75.5858C222.998 76.7024 223.527 78.0835 223.527 79.7291C223.527 80.0376 223.491 80.427 223.417 80.8971ZM215.064 78.6933H220.684C220.523 77.9733 220.192 77.4224 219.693 77.0404C219.208 76.6584 218.627 76.4674 217.952 76.4674C217.188 76.4674 216.556 76.6657 216.056 77.0624C215.557 77.4444 215.226 77.988 215.064 78.6933ZM231.154 69.8117H236.906C238.375 69.8117 239.624 70.3112 240.653 71.3103C241.666 72.3094 242.173 73.5362 242.173 74.9908C242.173 76.4453 241.666 77.6721 240.653 78.6712C239.624 79.6703 238.375 80.1699 236.906 80.1699H234.195V85.2388H231.154V69.8117ZM234.195 77.3269H236.906C237.553 77.3269 238.089 77.1065 238.515 76.6657C238.941 76.2102 239.154 75.6519 239.154 74.9908C239.154 74.3149 238.941 73.7566 238.515 73.3158C238.089 72.8751 237.553 72.6547 236.906 72.6547H234.195V77.3269ZM246.864 85.2388H244.021V69.1505H246.864V85.2388ZM257.841 75.5197V74.2194H260.684V85.2388H257.841V83.9385C256.989 85.011 255.791 85.5473 254.249 85.5473C252.779 85.5473 251.516 84.989 250.458 83.8724C249.415 82.741 248.893 81.36 248.893 79.7291C248.893 78.1129 249.415 76.7392 250.458 75.6079C251.516 74.4765 252.779 73.9109 254.249 73.9109C255.791 73.9109 256.989 74.4471 257.841 75.5197ZM252.596 81.977C253.169 82.55 253.896 82.8366 254.778 82.8366C255.659 82.8366 256.386 82.55 256.959 81.977C257.547 81.3893 257.841 80.64 257.841 79.7291C257.841 78.8182 257.547 78.0762 256.959 77.5032C256.386 76.9155 255.659 76.6216 254.778 76.6216C253.896 76.6216 253.169 76.9155 252.596 77.5032C252.023 78.0762 251.736 78.8182 251.736 79.7291C251.736 80.64 252.023 81.3893 252.596 81.977ZM268 81.6244L270.447 74.2194H273.488L269.477 85.2388C268.904 86.8256 268.14 87.9716 267.185 88.6768C266.245 89.3967 265.069 89.72 263.659 89.6465V87.0019C264.408 87.0166 265.01 86.8549 265.466 86.517C265.921 86.1791 266.281 85.6355 266.546 84.8862L262.028 74.2194H265.135L268 81.6244Z" fill="white"/>
<g filter="url(#filter1_ii_99_3307)">
<path d="M102.193 48.548C101.735 49.0329 101.465 49.7853 101.465 50.7598V85.5746C101.465 86.5506 101.735 87.3015 102.193 87.7864L102.31 87.8997L121.813 68.397V68.1672V67.9374L102.31 48.4331L102.193 48.548Z" fill="url(#paint0_linear_99_3307)"/>
<path d="M128.312 74.8999L121.812 68.3969V68.167V67.9372L128.313 61.4358L128.46 61.5192L136.162 65.8955C138.362 67.1454 138.362 69.1903 136.162 70.4418L128.46 74.818L128.312 74.8999Z" fill="url(#paint1_linear_99_3307)"/>
<g filter="url(#filter2_i_99_3307)">
<path d="M128.46 74.8164L121.811 68.167L102.193 87.7862C102.917 88.5544 104.115 88.6488 105.464 87.8838L128.46 74.8164Z" fill="url(#paint2_linear_99_3307)"/>
</g>
<path d="M128.46 61.5177L105.464 48.4519C104.115 47.6853 102.917 47.7813 102.193 48.5495L121.812 68.1687L128.46 61.5177Z" fill="url(#paint3_linear_99_3307)"/>
</g>
<defs>
<filter id="filter0_dddd_99_3307" x="0.716125" y="0.696739" width="380.955" height="239.277" filterUnits="userSpaceOnUse" color-interpolation-filters="sRGB">
<feFlood flood-opacity="0" result="BackgroundImageFix"/>
<feColorMatrix in="SourceAlpha" type="matrix" values="0 0 0 0 0 0 0 0 0 0 0 0 0 0 0 0 0 0 127 0" result="hardAlpha"/>
<feOffset dy="2.35264"/>
<feGaussianBlur stdDeviation="1.81795"/>
<feColorMatrix type="matrix" values="0 0 0 0 0 0 0 0 0 0 0 0 0 0 0 0 0 0 0.0268173 0"/>
<feBlend mode="normal" in2="BackgroundImageFix" result="effect1_dropShadow_99_3307"/>
<feColorMatrix in="SourceAlpha" type="matrix" values="0 0 0 0 0 0 0 0 0 0 0 0 0 0 0 0 0 0 127 0" result="hardAlpha"/>
<feOffset dy="6.50474"/>
<feGaussianBlur stdDeviation="5.02639"/>
<feColorMatrix type="matrix" values="0 0 0 0 0 0 0 0 0 0 0 0 0 0 0 0 0 0 0.0399899 0"/>
<feBlend mode="normal" in2="effect1_dropShadow_99_3307" result="effect2_dropShadow_99_3307"/>
<feColorMatrix in="SourceAlpha" type="matrix" values="0 0 0 0 0 0 0 0 0 0 0 0 0 0 0 0 0 0 127 0" result="hardAlpha"/>
<feOffset dy="15.6609"/>
<feGaussianBlur stdDeviation="12.1016"/>
<feColorMatrix type="matrix" values="0 0 0 0 0 0 0 0 0 0 0 0 0 0 0 0 0 0 0.0582218 0"/>
<feBlend mode="normal" in2="effect2_dropShadow_99_3307" result="effect3_dropShadow_99_3307"/>
<feColorMatrix in="SourceAlpha" type="matrix" values="0 0 0 0 0 0 0 0 0 0 0 0 0 0 0 0 0 0 127 0" result="hardAlpha"/>
<feOffset dy="51.9484"/>
<feGaussianBlur stdDeviation="40.1419"/>
<feColorMatrix type="matrix" values="0 0 0 0 0 0 0 0 0 0 0 0 0 0 0 0 0 0 0.08 0"/>
<feBlend mode="normal" in2="effect3_dropShadow_99_3307" result="effect4_dropShadow_99_3307"/>
<feBlend mode="normal" in="SourceGraphic" in2="effect4_dropShadow_99_3307" result="shape"/>
</filter>
<filter id="filter1_ii_99_3307" x="101.465" y="47.9229" width="36.3472" height="40.4893" filterUnits="userSpaceOnUse" color-interpolation-filters="sRGB">
<feFlood flood-opacity="0" result="BackgroundImageFix"/>
<feBlend mode="normal" in="SourceGraphic" in2="BackgroundImageFix" result="shape"/>
<feColorMatrix in="SourceAlpha" type="matrix" values="0 0 0 0 0 0 0 0 0 0 0 0 0 0 0 0 0 0 127 0" result="hardAlpha"/>
<feOffset dy="-0.236129"/>
<feComposite in2="hardAlpha" operator="arithmetic" k2="-1" k3="1"/>
<feColorMatrix type="matrix" values="0 0 0 0 0 0 0 0 0 0 0 0 0 0 0 0 0 0 0.12 0"/>
<feBlend mode="normal" in2="shape" result="effect1_innerShadow_99_3307"/>
<feColorMatrix in="SourceAlpha" type="matrix" values="0 0 0 0 0 0 0 0 0 0 0 0 0 0 0 0 0 0 127 0" result="hardAlpha"/>
<feOffset dy="0.236129"/>
<feComposite in2="hardAlpha" operator="arithmetic" k2="-1" k3="1"/>
<feColorMatrix type="matrix" values="0 0 0 0 1 0 0 0 0 1 0 0 0 0 1 0 0 0 0.25 0"/>
<feBlend mode="normal" in2="effect1_innerShadow_99_3307" result="effect2_innerShadow_99_3307"/>
</filter>
<filter id="filter2_i_99_3307" x="102.193" y="68.167" width="26.2671" height="20.2451" filterUnits="userSpaceOnUse" color-interpolation-filters="sRGB">
<feFlood flood-opacity="0" result="BackgroundImageFix"/>
<feBlend mode="normal" in="SourceGraphic" in2="BackgroundImageFix" result="shape"/>
<feColorMatrix in="SourceAlpha" type="matrix" values="0 0 0 0 0 0 0 0 0 0 0 0 0 0 0 0 0 0 127 0" result="hardAlpha"/>
<feOffset dy="-0.236129"/>
<feComposite in2="hardAlpha" operator="arithmetic" k2="-1" k3="1"/>
<feColorMatrix type="matrix" values="0 0 0 0 0 0 0 0 0 0 0 0 0 0 0 0 0 0 0.08 0"/>
<feBlend mode="normal" in2="shape" result="effect1_innerShadow_99_3307"/>
</filter>
<linearGradient id="paint0_linear_99_3307" x1="120.084" y1="50.3914" x2="93.6657" y2="76.8095" gradientUnits="userSpaceOnUse">
<stop stop-color="#00A0FF"/>
<stop offset="0.0066" stop-color="#00A1FF"/>
<stop offset="0.2601" stop-color="#00BEFF"/>
<stop offset="0.5122" stop-color="#00D2FF"/>
<stop offset="0.7604" stop-color="#00DFFF"/>
<stop offset="1" stop-color="#00E3FF"/>
</linearGradient>
<linearGradient id="paint1_linear_99_3307" x1="139.025" y1="68.167" x2="100.936" y2="68.167" gradientUnits="userSpaceOnUse">
<stop stop-color="#FFE000"/>
<stop offset="0.4087" stop-color="#FFBD00"/>
<stop offset="0.7754" stop-color="#FFA500"/>
<stop offset="1" stop-color="#FF9C00"/>
</linearGradient>
<linearGradient id="paint2_linear_99_3307" x1="124.849" y1="71.778" x2="89.0228" y2="107.604" gradientUnits="userSpaceOnUse">
<stop stop-color="#FF3A44"/>
<stop offset="1" stop-color="#C31162"/>
</linearGradient>
<linearGradient id="paint3_linear_99_3307" x1="97.2524" y1="36.96" x2="113.25" y2="52.9574" gradientUnits="userSpaceOnUse">
<stop stop-color="#32A071"/>
<stop offset="0.0685" stop-color="#2DA771"/>
<stop offset="0.4762" stop-color="#15CF74"/>
<stop offset="0.8009" stop-color="#06E775"/>
<stop offset="1" stop-color="#00F076"/>
</linearGradient>
</defs>
</svg>
