<svg width="33" height="33" viewBox="0 0 33 33" fill="none" xmlns="http://www.w3.org/2000/svg">
<path d="M16.8335 2.33337C9.10225 2.33337 2.8335 8.60212 2.8335 16.3334C2.8335 24.0646 9.10225 30.3334 16.8335 30.3334C24.5647 30.3334 30.8335 24.0646 30.8335 16.3334C30.8335 8.60212 24.5647 2.33337 16.8335 2.33337ZM16.8335 27.9584C10.4147 27.9584 5.2085 22.7521 5.2085 16.3334C5.2085 9.91462 10.4147 4.70837 16.8335 4.70837C23.2522 4.70837 28.4585 9.91462 28.4585 16.3334C28.4585 22.7521 23.2522 27.9584 16.8335 27.9584Z" fill="#ADB5CD"/>
<path d="M15.3335 10.8334C15.3335 11.2312 15.4915 11.6127 15.7728 11.894C16.0541 12.1753 16.4357 12.3334 16.8335 12.3334C17.2313 12.3334 17.6129 12.1753 17.8942 11.894C18.1755 11.6127 18.3335 11.2312 18.3335 10.8334C18.3335 10.4355 18.1755 10.054 17.8942 9.77271C17.6129 9.49141 17.2313 9.33337 16.8335 9.33337C16.4357 9.33337 16.0541 9.49141 15.7728 9.77271C15.4915 10.054 15.3335 10.4355 15.3335 10.8334ZM17.5835 14.3334H16.0835C15.946 14.3334 15.8335 14.4459 15.8335 14.5834V23.0834C15.8335 23.2209 15.946 23.3334 16.0835 23.3334H17.5835C17.721 23.3334 17.8335 23.2209 17.8335 23.0834V14.5834C17.8335 14.4459 17.721 14.3334 17.5835 14.3334Z" fill="#ADB5CD"/>
</svg>
