<svg width="19" height="20" viewBox="0 0 19 20" fill="none" xmlns="http://www.w3.org/2000/svg">
<path fill-rule="evenodd" clip-rule="evenodd" d="M1.22851 5.83614C2.65471 2.4115 5.99636 0.176846 9.70609 0.166938C13.7043 0.145884 17.2594 2.70687 18.5057 6.50591C19.752 10.3049 18.4048 14.4742 15.1712 16.8256C11.9375 19.1771 7.556 19.1736 4.32609 16.8169L1.44609 19.6969C1.15327 19.9894 0.678906 19.9894 0.386088 19.6969C0.0936347 19.4041 0.0936347 18.9298 0.386088 18.6369L3.17609 15.8469C0.569991 13.2068 -0.197696 9.26077 1.22851 5.83614ZM2.56566 12.3359C3.76313 15.2215 6.58182 17.101 9.70609 17.0969V17.0569C13.9464 17.0515 17.3886 13.6271 17.4161 9.38694C17.4201 6.26267 15.5407 3.44398 12.655 2.24651C9.76935 1.04903 6.44642 1.70889 4.23723 3.91808C2.02804 6.12727 1.36818 9.4502 2.56566 12.3359Z" fill="#5D5B74"/>
</svg>
